<svg width="24" height="18" viewBox="0 0 24 18" fill="none" xmlns="http://www.w3.org/2000/svg">
<path fill-rule="evenodd" clip-rule="evenodd" d="M21 0.75H3C1.7574 0.75 0.75 1.7574 0.75 3V15C0.75 16.2426 1.7574 17.25 3 17.25H21C22.2426 17.25 23.25 16.2426 23.25 15V3C23.25 1.7574 22.2426 0.75 21 0.75ZM2.25 8.25V6.75H21.75V8.25H2.25ZM2.25 5.25H21.75V3C21.75 2.5858 21.4142 2.25 21 2.25H3C2.5858 2.25 2.25 2.5858 2.25 3V5.25ZM2.25 9.75H21.75V15C21.75 15.4142 21.4142 15.75 21 15.75H3C2.5858 15.75 2.25 15.4142 2.25 15V9.75Z" fill="#3483FA"/>
</svg>
