<svg width="22" height="20" viewBox="0 0 22 20" fill="none" xmlns="http://www.w3.org/2000/svg">
<g clip-path="url(#clip0_1_55)">
<path d="M8.97024 18.3333C9.40675 18.3333 9.77778 18.1806 10.0833 17.875C10.3889 17.5694 10.5417 17.1984 10.5417 16.7619C10.5417 16.3254 10.3889 15.9544 10.0833 15.6488C9.77778 15.3433 9.40675 15.1905 8.97024 15.1905C8.68651 15.1905 8.42461 15.2614 8.18453 15.4033C7.94445 15.5451 7.75348 15.7361 7.61161 15.9762C7.46975 16.2163 7.39881 16.4782 7.39881 16.7619C7.39881 17.0456 7.46975 17.3075 7.61161 17.5476C7.75348 17.7877 7.94445 17.9787 8.18453 18.1205C8.42461 18.2624 8.68651 18.3333 8.97024 18.3333ZM8.97024 19.381C8.49008 19.381 8.05085 19.2636 7.65253 19.029C7.25422 18.7944 6.93775 18.4752 6.70313 18.0714C6.46851 17.6677 6.35119 17.2311 6.35119 16.7619C6.35119 16.2927 6.46851 15.8561 6.70313 15.4524C6.93775 15.0486 7.25422 14.7294 7.65253 14.4948C8.05085 14.2602 8.48735 14.1429 8.96206 14.1429C9.43676 14.1429 9.876 14.2602 10.2798 14.4948C10.6835 14.7294 11.0027 15.0486 11.2374 15.4524C11.472 15.8561 11.5893 16.2927 11.5893 16.7619C11.5893 17.2311 11.472 17.6677 11.2374 18.0714C11.0027 18.4752 10.6835 18.7944 10.2798 19.029C9.876 19.2636 9.43949 19.381 8.97024 19.381ZM17.3512 18.3333C17.7877 18.3333 18.1587 18.1806 18.4643 17.875C18.7698 17.5694 18.9226 17.1984 18.9226 16.7619C18.9226 16.3254 18.7698 15.9544 18.4643 15.6488C18.1587 15.3433 17.7877 15.1905 17.3512 15.1905C17.0675 15.1905 16.8056 15.2614 16.5655 15.4033C16.3254 15.5451 16.1344 15.7361 15.9926 15.9762C15.8507 16.2163 15.7798 16.4782 15.7798 16.7619C15.7798 17.0456 15.8507 17.3075 15.9926 17.5476C16.1344 17.7877 16.3254 17.9787 16.5655 18.1205C16.8056 18.2624 17.0675 18.3333 17.3512 18.3333ZM17.3512 19.381C16.871 19.381 16.4318 19.2636 16.0335 19.029C15.6352 18.7944 15.3187 18.4752 15.0841 18.0714C14.8495 17.6677 14.7321 17.2311 14.7321 16.7619C14.7321 16.2927 14.8495 15.8561 15.0841 15.4524C15.3187 15.0486 15.6352 14.7294 16.0335 14.4948C16.4318 14.2602 16.8683 14.1429 17.343 14.1429C17.8177 14.1429 18.2569 14.2602 18.6607 14.4948C19.0645 14.7294 19.3837 15.0486 19.6183 15.4524C19.8529 15.8561 19.9702 16.2927 19.9702 16.7619C19.9702 17.2311 19.8529 17.6677 19.6183 18.0714C19.3837 18.4752 19.0645 18.7944 18.6607 19.029C18.2569 19.2636 17.8204 19.381 17.3512 19.381ZM7.82441 12.0804H18.2024L20.2649 5.77827H5.36905L7.82441 12.0804ZM4.71429 4.73065H21.7054L18.9554 13.128H7.12054L3.48661 3.84672H0.0818481V2.7991H4.20685L5.2381 5.43452L4.71429 4.73065Z" fill="white" fill-opacity="0.898"/>
</g>
<defs>
<clipPath id="clip0_1_55">
<rect width="22" height="18" fill="white" transform="matrix(1 0 0 -1 0 20)"/>
</clipPath>
</defs>
</svg>
