<svg width="30" height="34" viewBox="0 0 30 34" fill="none" xmlns="http://www.w3.org/2000/svg">
<path d="M15.791 32.7715L15 33.5352L14.209 32.7715C9.81444 28.4551 6.52482 24.6755 4.34011 21.4326C2.1554 18.1898 1.06305 15.4561 1.06305 13.2314C1.06305 11.0068 1.7034 8.94271 2.98409 7.03906C4.21456 5.17969 5.88448 3.70768 7.99385 2.62305C10.1535 1.49414 12.4951 0.929688 15.0188 0.929688C17.5425 0.929688 19.8842 1.49414 22.0438 2.62305C24.1532 3.70768 25.8231 5.17969 27.0536 7.03906C28.3091 8.94271 28.9369 11.0068 28.9369 13.2314C28.9369 15.4561 27.8446 18.1898 25.6599 21.4326C23.4752 24.6755 20.1855 28.4551 15.791 32.7715ZM26.7899 13.2148C26.7899 11.3333 26.25 9.58464 25.1702 7.96875C24.1406 6.41927 22.7344 5.17969 20.9514 4.25C19.1183 3.29818 17.1345 2.82227 15 2.82227C12.8655 2.82227 10.8817 3.29818 9.04854 4.25C7.29073 5.17969 5.88448 6.41927 4.82979 7.96875C3.74999 9.58464 3.21009 11.3333 3.21009 13.2148C3.21009 15.0964 4.19572 17.5036 6.16698 20.4365C8.13824 23.3695 11.0826 26.7949 15 30.7129C18.9174 26.7949 21.8617 23.3695 23.833 20.4365C25.8043 17.5036 26.7899 15.0964 26.7899 13.2148ZM15 17.9297C14.0458 17.9297 13.1543 17.7194 12.3256 17.2988C11.4969 16.8783 10.844 16.3083 10.3669 15.5889C9.88978 14.8695 9.65122 14.0837 9.65122 13.2314C9.65122 12.3792 9.88978 11.5879 10.3669 10.8574C10.844 10.127 11.4969 9.55143 12.3256 9.13086C13.1543 8.71029 14.052 8.5 15.0188 8.5C15.9856 8.5 16.8771 8.71029 17.6932 9.13086C18.5093 9.55143 19.156 10.127 19.6331 10.8574C20.1102 11.5879 20.3488 12.3792 20.3488 13.2314C20.3488 14.0837 20.1102 14.8695 19.6331 15.5889C19.156 16.3083 18.5093 16.8783 17.6932 17.2988C16.8771 17.7194 15.9793 17.9297 15 17.9297ZM15 16.0703C15.904 16.0703 16.6699 15.7936 17.2977 15.2402C17.9255 14.6868 18.2394 14.0173 18.2394 13.2314C18.2394 12.4456 17.9255 11.776 17.2977 11.2227C16.6699 10.6693 15.9103 10.3926 15.0188 10.3926C14.1274 10.3926 13.3677 10.6693 12.7399 11.2227C12.1122 11.776 11.7983 12.4456 11.7983 13.2314C11.7983 14.0173 12.1122 14.6868 12.7399 15.2402C13.3677 15.7936 14.1211 16.0703 15 16.0703Z" fill="white" fill-opacity="0.898"/>
</svg>
